# This file uses centimeters as units for non-parametric coordinates.

mtllib ui_rotateArrows.mtl
g default
v -3.227336 -0.200016 1.204060
v -2.531771 -0.200016 0.831858
v -3.227336 0.200016 1.204060
v -2.531771 0.200016 0.831858
v -3.509620 0.200016 0.285551
v -2.725076 0.200016 0.202874
v -3.509620 -0.200016 0.285551
v -2.725076 -0.200016 0.202874
v -2.105500 -0.200016 2.276805
v -1.765919 -0.200016 1.571375
v -2.105500 0.200016 2.276805
v -1.765919 0.200016 1.571375
v -2.390275 -0.200016 2.868382
v -1.479992 -0.200016 0.977407
v -2.390275 0.200016 2.868382
v -1.479992 0.200016 0.977407
v -1.593874 -0.200668 2.535420
v -1.253218 -0.198950 1.724176
v -1.593874 0.199363 2.535420
v -1.253218 0.201081 1.724176
v -1.020685 0.200016 -2.479453
v -1.020685 0.200016 -1.690564
v -1.020685 -0.200016 -2.479453
v -1.020685 -0.200016 -1.690564
v -1.935133 -0.200016 1.922894
v -1.076225 -0.200462 2.284725
v -1.076225 0.199570 2.284725
v -1.935133 0.200016 1.922894
v -2.404872 0.200016 1.613495
v -2.663846 0.200016 1.911018
v -2.663846 -0.200016 1.911018
v -2.145089 -0.200016 1.315041
v -2.145089 0.200016 1.315041
v -3.464579 0.200016 -0.516156
v -3.464579 -0.200016 -0.516156
v -2.694232 -0.200016 -0.346124
v -2.694232 0.200016 -0.346124
v -2.588099 0.200016 -1.927840
v -2.588099 -0.200016 -1.927840
v -2.094030 -0.200016 -1.312826
v -2.094030 0.200016 -1.312826
v -1.851508 0.200016 -2.337525
v -1.851508 -0.200016 -2.337525
v -1.589622 -0.200016 -1.593374
v -1.589622 0.200016 -1.593374
v -3.146917 0.200016 -1.296862
v -3.146917 -0.200016 -1.296862
v -2.476701 -0.200016 -0.880741
v -2.476701 0.200016 -0.880741
v 3.193480 -0.200016 -0.924377
v 2.497915 -0.200016 -0.552175
v 3.193480 0.200016 -0.924377
v 2.497915 0.200016 -0.552175
v 3.475764 0.200016 -0.005867
v 2.691220 0.200016 0.076809
v 3.475764 -0.200016 -0.005867
v 2.691220 -0.200016 0.076809
v 2.071644 -0.200016 -1.997122
v 1.732063 -0.200016 -1.291692
v 2.071644 0.200016 -1.997122
v 1.732063 0.200016 -1.291692
v 2.356419 -0.200016 -2.588699
v 1.446136 -0.200016 -0.697724
v 2.356419 0.200016 -2.588699
v 1.446136 0.200016 -0.697724
v 1.560019 -0.200668 -2.255737
v 1.219362 -0.198950 -1.444493
v 1.560019 0.199363 -2.255737
v 1.219362 0.201081 -1.444493
v 0.986829 0.200016 2.759136
v 0.986829 0.200016 1.970247
v 0.986829 -0.200016 2.759136
v 0.986829 -0.200016 1.970247
v 1.901278 -0.200016 -1.643211
v 1.042369 -0.200462 -2.005042
v 1.042369 0.199570 -2.005042
v 1.901278 0.200016 -1.643211
v 2.371017 0.200016 -1.333812
v 2.629990 0.200016 -1.631335
v 2.629990 -0.200016 -1.631335
v 2.111233 -0.200016 -1.035358
v 2.111233 0.200016 -1.035358
v 3.430723 0.200016 0.795839
v 3.430723 -0.200016 0.795839
v 2.660376 -0.200016 0.625807
v 2.660376 0.200016 0.625807
v 2.554244 0.200016 2.207523
v 2.554244 -0.200016 2.207523
v 2.060174 -0.200016 1.592509
v 2.060174 0.200016 1.592509
v 1.817652 0.200016 2.617208
v 1.817652 -0.200016 2.617208
v 1.555766 -0.200016 1.873057
v 1.555766 0.200016 1.873057
v 3.113061 0.200016 1.576545
v 3.113061 -0.200016 1.576545
v 2.442845 -0.200016 1.160424
v 2.442845 0.200016 1.160424
vt 0.936683 0.819104
vt 0.928121 0.819104
vt 0.928171 0.807219
vt 0.936775 0.807368
vt 0.064674 0.819644
vt 0.059522 0.819544
vt 0.059706 0.812245
vt 0.064603 0.812341
vt 0.072882 0.816130
vt 0.810867 0.818926
vt 0.069371 0.819537
vt 0.921034 0.813049
vt 0.813325 0.810358
vt 0.915319 0.818869
vt 0.069444 0.812222
vt 0.921081 0.807163
vt 0.915292 0.806712
vt 0.072876 0.812518
vt 0.072901 0.825846
vt 0.808451 0.810358
vt 0.915279 0.796905
vt 0.798119 0.818925
vt 0.076388 0.819854
vt 0.910110 0.805467
vt 0.909687 0.818542
vt 0.800992 0.818910
vt 0.944194 0.819104
vt 0.944552 0.807342
vt 0.055195 0.819714
vt 0.846958 0.818927
vt 0.906170 0.811851
vt 0.915299 0.812516
vt 0.803156 0.818932
vt 0.951888 0.807508
vt 0.951401 0.819104
vt 0.051034 0.819614
vt 0.844833 0.818927
vt 0.046722 0.819479
vt 0.829351 0.810359
vt 0.965769 0.819104
vt 0.042366 0.819419
vt 0.840584 0.818927
vt 0.842709 0.818927
vt 0.958996 0.807408
vt 0.966020 0.807798
vt 0.835556 0.810359
vt 0.037852 0.819339
vt 0.838460 0.818927
vt 0.973099 0.807860
vt 0.844833 0.810359
vt 0.842709 0.810359
vt 0.826248 0.810358
vt 0.958923 0.819104
vt 0.840584 0.810359
vt 0.838460 0.810359
vt 0.832453 0.810359
vt 0.972841 0.819104
vt 0.846958 0.810359
vt 0.823145 0.810358
vt 0.853682 0.810359
vt 0.855367 0.810359
vt 0.920988 0.819104
vt 0.810867 0.810358
vt 0.803156 0.810364
vt 0.800992 0.810342
vt 0.848982 0.810359
vt 0.820190 0.810358
vt 0.805273 0.810367
vt 0.857794 0.810360
vt 0.915320 0.828127
vt 0.851404 0.810359
vt 0.816652 0.810358
vt 0.051038 0.812310
vt 0.046826 0.812176
vt 0.826248 0.818926
vt 0.829350 0.818927
vt 0.042387 0.812114
vt 0.037864 0.812035
vt 0.832453 0.818927
vt 0.835556 0.818927
vt 0.055319 0.812413
vt 0.823145 0.818926
vt 0.853682 0.818927
vt 0.855367 0.818928
vt 0.813324 0.818926
vt 0.072889 0.819767
vt 0.078563 0.815674
vt 0.076098 0.811719
vt 0.848982 0.818927
vt 0.820189 0.818926
vt 0.805273 0.818935
vt 0.072864 0.806414
vt 0.808451 0.818926
vt 0.851404 0.818927
vt 0.816652 0.818926
vt 0.857794 0.818928
vt 0.798119 0.810357
vt 0.936683 0.819104
vt 0.928121 0.819104
vt 0.928171 0.807219
vt 0.936775 0.807368
vt 0.064674 0.819644
vt 0.059522 0.819544
vt 0.059706 0.812245
vt 0.064603 0.812341
vt 0.851404 0.818927
vt 0.848982 0.818927
vt 0.848982 0.810359
vt 0.851404 0.810359
vt 0.820189 0.818926
vt 0.816652 0.818926
vt 0.816652 0.810358
vt 0.820190 0.810358
vt 0.072882 0.816130
vt 0.072889 0.819767
vt 0.069371 0.819537
vt 0.921034 0.813049
vt 0.920988 0.819104
vt 0.915319 0.818869
vt 0.813325 0.810358
vt 0.813324 0.818926
vt 0.810867 0.818926
vt 0.810867 0.810358
vt 0.853682 0.818927
vt 0.853682 0.810359
vt 0.855367 0.810359
vt 0.855367 0.818928
vt 0.808451 0.818926
vt 0.808451 0.810358
vt 0.857794 0.810360
vt 0.857794 0.818928
vt 0.072901 0.825846
vt 0.076388 0.819854
vt 0.915279 0.796905
vt 0.915292 0.806712
vt 0.910110 0.805467
vt 0.805273 0.818935
vt 0.805273 0.810367
vt 0.798119 0.818925
vt 0.798119 0.810357
vt 0.800992 0.810342
vt 0.800992 0.818910
vt 0.944194 0.819104
vt 0.944552 0.807342
vt 0.055195 0.819714
vt 0.055319 0.812413
vt 0.823145 0.810358
vt 0.823145 0.818926
vt 0.846958 0.818927
vt 0.846958 0.810359
vt 0.909687 0.818542
vt 0.915320 0.828127
vt 0.906170 0.811851
vt 0.915299 0.812516
vt 0.076098 0.811719
vt 0.072876 0.812518
vt 0.072864 0.806414
vt 0.078563 0.815674
vt 0.803156 0.818932
vt 0.803156 0.810364
vt 0.921081 0.807163
vt 0.069444 0.812222
vt 0.951888 0.807508
vt 0.951401 0.819104
vt 0.826248 0.810358
vt 0.826248 0.818926
vt 0.051034 0.819614
vt 0.051038 0.812310
vt 0.844833 0.818927
vt 0.844833 0.810359
vt 0.829350 0.818927
vt 0.829351 0.810359
vt 0.832453 0.810359
vt 0.832453 0.818927
vt 0.046722 0.819479
vt 0.042366 0.819419
vt 0.042387 0.812114
vt 0.046826 0.812176
vt 0.842709 0.810359
vt 0.842709 0.818927
vt 0.840584 0.818927
vt 0.840584 0.810359
vt 0.966020 0.807798
vt 0.965769 0.819104
vt 0.958923 0.819104
vt 0.958996 0.807408
vt 0.835556 0.810359
vt 0.835556 0.818927
vt 0.037852 0.819339
vt 0.037864 0.812035
vt 0.838460 0.818927
vt 0.838460 0.810359
vt 0.972841 0.819104
vt 0.973099 0.807860
vn 0.000000 1.000000 -0.000000
vn 0.000000 1.000000 -0.000000
vn 0.000000 1.000000 -0.000000
vn 0.000000 1.000000 -0.000000
vn 0.000000 -1.000000 -0.000000
vn 0.000000 -1.000000 -0.000000
vn 0.000000 -1.000000 -0.000000
vn 0.000000 -1.000000 -0.000000
vn 0.886675 0.000000 -0.462394
vn 0.990623 0.000000 -0.136621
vn 0.990623 0.000000 -0.136621
vn 0.886675 0.000000 -0.462394
vn -0.990623 0.000000 0.136621
vn -0.887098 0.000000 0.461581
vn -0.887098 0.000000 0.461581
vn -0.990623 0.000000 0.136621
vn 0.000200 -1.000000 -0.000824
vn -0.000524 -1.000000 -0.000569
vn 0.000000 -1.000000 0.000000
vn 0.000000 1.000000 -0.000000
vn 0.000000 1.000000 0.000000
vn 0.000485 1.000000 0.000527
vn -0.691116 0.000000 0.722743
vn -0.691116 0.000000 0.722743
vn -0.547999 0.000000 0.836479
vn -0.547999 0.000000 0.836479
vn 0.694630 0.000000 -0.719367
vn 0.694630 0.000000 -0.719367
vn 0.560064 0.000000 -0.828450
vn 0.560064 0.000000 -0.828450
vn -0.901037 -0.000000 -0.433743
vn -0.901037 -0.000000 -0.433743
vn -0.901037 -0.000000 -0.433743
vn -0.901037 -0.000000 -0.433743
vn -0.901036 0.000000 -0.433744
vn -0.901036 0.000000 -0.433744
vn -0.901036 0.000000 -0.433744
vn -0.901036 0.000000 -0.433744
vn -0.001025 -0.999999 -0.000493
vn -0.000540 -1.000000 -0.000764
vn -0.001817 0.999998 -0.000875
vn -0.000955 0.999999 0.000636
vn -0.001226 0.999999 0.001151
vn 0.385729 0.000000 0.922612
vn 0.385729 0.000000 0.922612
vn 0.385729 0.000000 0.922612
vn 0.385729 0.000000 0.922612
vn 0.956853 0.000000 -0.290572
vn 0.956853 0.000000 -0.290572
vn 0.956853 0.000000 -0.290572
vn 0.956853 0.000000 -0.290572
vn 0.000000 1.000000 0.000000
vn 0.000000 1.000000 0.000000
vn 0.000000 -1.000000 0.000000
vn 0.000000 -1.000000 0.000000
vn -0.974723 0.000000 -0.223415
vn -0.974723 0.000000 -0.223415
vn 0.974723 0.000000 0.223416
vn 0.974723 0.000000 0.223416
vn 0.000540 1.000000 0.000764
vn 0.001025 0.999999 0.000493
vn -0.000329 0.999999 0.001249
vn -0.000176 1.000000 0.000725
vn 0.001226 -0.999999 -0.001151
vn 0.001096 -0.999999 -0.000730
vn 0.001817 -0.999998 0.000875
vn 0.000329 -0.999999 -0.001249
vn 0.921696 0.000000 0.387912
vn 0.922320 0.000000 0.386426
vn 0.435872 0.000000 0.900009
vn 0.435872 0.000000 0.900009
vn 0.953594 0.000000 -0.301096
vn 0.953594 0.000000 -0.301096
vn 0.000000 1.000000 0.000000
vn 0.000000 -1.000000 0.000000
vn 0.000000 1.000000 0.000000
vn 0.000000 1.000000 0.000000
vn -0.849569 0.000000 -0.527477
vn -0.849569 0.000000 -0.527477
vn 0.000000 -1.000000 0.000000
vn 0.000000 -1.000000 0.000000
vn 0.849569 0.000000 0.527477
vn 0.849569 0.000000 0.527477
vn -0.626285 0.000000 -0.779594
vn -0.626285 0.000000 -0.779594
vn -0.331968 0.000000 -0.943291
vn -0.331968 0.000000 -0.943291
vn 0.000000 -1.000000 0.000000
vn 0.000000 -1.000000 -0.000000
vn 0.000000 -1.000000 -0.000000
vn 0.000000 -1.000000 0.000000
vn 0.626285 0.000000 0.779594
vn 0.626285 0.000000 0.779594
vn 0.331968 0.000000 0.943291
vn 0.331968 0.000000 0.943291
vn 0.000000 1.000000 -0.000000
vn 0.000000 1.000000 -0.000000
vn 0.000000 1.000000 0.000000
vn 0.000000 1.000000 0.000000
vn -0.168389 0.000000 -0.985721
vn -0.168389 0.000000 -0.985721
vn 0.000000 -1.000000 -0.000000
vn 0.000000 -1.000000 -0.000000
vn 0.168388 0.000000 0.985721
vn 0.168388 0.000000 0.985721
vn 0.000000 1.000000 -0.000000
vn 0.000000 1.000000 -0.000000
vn 1.000000 0.000000 0.000000
vn 1.000000 0.000000 0.000000
vn 1.000000 0.000000 0.000000
vn 1.000000 0.000000 0.000000
vn 0.000000 1.000000 0.000000
vn 0.000000 1.000000 0.000000
vn 0.000000 1.000000 0.000000
vn 0.000000 1.000000 0.000000
vn 0.000000 -1.000000 0.000000
vn 0.000000 -1.000000 0.000000
vn 0.000000 -1.000000 0.000000
vn 0.000000 -1.000000 0.000000
vn -0.886675 0.000000 0.462394
vn -0.990623 0.000000 0.136621
vn -0.990623 0.000000 0.136621
vn -0.886675 0.000000 0.462394
vn 0.990623 0.000000 -0.136621
vn 0.887098 0.000000 -0.461581
vn 0.887098 0.000000 -0.461581
vn 0.990623 0.000000 -0.136621
vn -0.000200 -1.000000 0.000824
vn 0.000524 -1.000000 0.000569
vn 0.000000 -1.000000 -0.000000
vn 0.000000 1.000000 0.000000
vn 0.000000 1.000000 -0.000000
vn -0.000485 1.000000 -0.000527
vn 0.691116 0.000000 -0.722744
vn 0.691116 0.000000 -0.722744
vn 0.547999 0.000000 -0.836479
vn 0.547999 0.000000 -0.836479
vn -0.694630 0.000000 0.719367
vn -0.694630 0.000000 0.719367
vn -0.560064 0.000000 0.828450
vn -0.560064 0.000000 0.828450
vn 0.901037 0.000000 0.433743
vn 0.901037 0.000000 0.433743
vn 0.901037 0.000000 0.433743
vn 0.901037 0.000000 0.433743
vn 0.901036 0.000000 0.433744
vn 0.901036 0.000000 0.433744
vn 0.901036 0.000000 0.433744
vn 0.901036 0.000000 0.433744
vn 0.001025 -0.999999 0.000493
vn 0.000540 -1.000000 0.000764
vn 0.001817 0.999998 0.000875
vn 0.000955 0.999999 -0.000636
vn 0.001226 0.999999 -0.001151
vn -0.385729 0.000000 -0.922612
vn -0.385729 0.000000 -0.922612
vn -0.385729 0.000000 -0.922612
vn -0.385729 0.000000 -0.922612
vn -0.956853 0.000000 0.290572
vn -0.956853 0.000000 0.290572
vn -0.956853 0.000000 0.290572
vn -0.956853 0.000000 0.290572
vn 0.000000 1.000000 0.000000
vn 0.000000 1.000000 0.000000
vn 0.000000 -1.000000 0.000000
vn 0.000000 -1.000000 0.000000
vn 0.974723 0.000000 0.223415
vn 0.974723 0.000000 0.223415
vn -0.974723 0.000000 -0.223416
vn -0.974723 0.000000 -0.223416
vn -0.000540 1.000000 -0.000764
vn -0.001025 0.999999 -0.000493
vn 0.000329 0.999999 -0.001249
vn 0.000176 1.000000 -0.000725
vn -0.001226 -0.999999 0.001151
vn -0.001096 -0.999999 0.000730
vn -0.001817 -0.999998 -0.000875
vn -0.000329 -0.999999 0.001249
vn -0.921696 0.000000 -0.387912
vn -0.922320 0.000000 -0.386426
vn -0.435871 0.000000 -0.900009
vn -0.435871 0.000000 -0.900009
vn -0.953594 0.000000 0.301096
vn -0.953594 0.000000 0.301096
vn 0.000000 1.000000 -0.000000
vn 0.000000 -1.000000 -0.000000
vn 0.000000 1.000000 0.000000
vn 0.000000 1.000000 0.000000
vn 0.849569 0.000000 0.527477
vn 0.849569 0.000000 0.527477
vn 0.000000 -1.000000 0.000000
vn 0.000000 -1.000000 0.000000
vn -0.849569 0.000000 -0.527477
vn -0.849569 0.000000 -0.527477
vn 0.626285 0.000000 0.779594
vn 0.626285 0.000000 0.779594
vn 0.331968 0.000000 0.943291
vn 0.331968 0.000000 0.943291
vn 0.000000 -1.000000 -0.000000
vn 0.000000 -1.000000 0.000000
vn 0.000000 -1.000000 0.000000
vn 0.000000 -1.000000 -0.000000
vn -0.626285 0.000000 -0.779594
vn -0.626285 0.000000 -0.779594
vn -0.331968 0.000000 -0.943291
vn -0.331968 0.000000 -0.943291
vn 0.000000 1.000000 0.000000
vn 0.000000 1.000000 0.000000
vn 0.000000 1.000000 -0.000000
vn 0.000000 1.000000 -0.000000
vn 0.168389 0.000000 0.985721
vn 0.168389 0.000000 0.985721
vn 0.000000 -1.000000 0.000000
vn 0.000000 -1.000000 0.000000
vn -0.168389 0.000000 -0.985721
vn -0.168389 0.000000 -0.985721
vn 0.000000 1.000000 0.000000
vn 0.000000 1.000000 0.000000
vn -1.000000 0.000000 0.000000
vn -1.000000 0.000000 0.000000
vn -1.000000 0.000000 0.000000
vn -1.000000 0.000000 0.000000
s 1
g pCube5
usemtl initialShadingGroup
f 5/1/1 3/2/2 4/3/3 6/4/4
s 2
f 1/5/5 7/6/6 8/7/7 2/8/8
s 3
f 2/94/9 8/89/10 6/66/11 4/71/12
s 4
f 7/90/13 1/95/14 3/72/15 5/67/16
s 2
f 25/9/17 9/86/18 31/11/19
s 1
f 29/12/20 30/62/21 11/14/22
s 4
f 30/13/23 31/85/24 9/10/25 11/63/26
s 3
f 32/83/27 33/60/28 12/61/29 10/84/30
s off
f 11/63/31 9/10/32 13/93/33 15/20/34
f 10/84/35 12/61/36 16/69/37 14/96/38
s 2
f 13/19/39 9/86/18 17/23/40
s 1
f 16/21/41 12/17/42 20/24/43
s off
f 15/20/44 13/93/45 17/91/46 19/68/47
f 14/22/48 16/97/49 20/65/50 18/26/51
s 1
f 34/27/52 5/1/1 6/4/4 37/28/53
s 2
f 7/6/6 35/29/54 36/81/55 8/7/7
s 4
f 7/90/13 5/67/16 34/59/56 35/82/57
s 3
f 6/66/11 8/89/10 36/30/58 37/58/59
s 1
f 19/25/60 11/14/22 15/70/61
f 27/31/62 28/32/63 11/14/22 19/25/60
s 2
f 18/88/64 10/18/65 14/92/66
f 17/23/40 9/86/18 25/9/17 26/87/67
s 9
f 26/33/68 27/64/69 19/68/70 17/91/71
s 2
f 26/87/67 25/9/17 10/18/65 18/88/64
s 9
f 18/26/72 20/65/73 27/64/69 26/33/68
s 1
f 20/24/43 12/17/42 28/32/63 27/31/62
f 3/2/2 30/62/21 29/12/20 33/16/74 4/3/3
s 4
f 3/72/15 1/95/14 31/85/24 30/13/23
s 2
f 31/11/19 1/5/5 2/8/8 32/15/75
s 3
f 2/94/9 4/71/12 33/60/28 32/83/27
s 1
f 49/34/76 46/35/77 34/27/52 37/28/53
s 4
f 35/82/57 34/59/56 46/52/78 47/75/79
s 2
f 35/29/54 47/36/80 48/73/81 36/81/55
s 3
f 37/58/59 36/30/58 48/37/82 49/50/83
s 4
f 39/76/84 38/39/85 42/56/86 43/79/87
s 2
f 39/38/88 43/41/89 44/77/90 40/74/91
s 3
f 41/51/92 40/43/93 44/42/94 45/54/95
s 1
f 45/45/96 42/40/97 38/53/98 41/44/99
s 4
f 43/79/87 42/56/86 21/46/100 23/80/101
s 2
f 43/41/89 23/47/102 24/78/103 44/77/90
s 3
f 45/54/95 44/42/94 24/48/104 22/55/105
s 1
f 21/57/106 42/40/97 45/45/96 22/49/107
s 4
f 47/75/79 46/52/78 38/39/85 39/76/84
s 2
f 47/36/80 39/38/88 40/74/91 48/73/81
s 3
f 49/50/83 48/37/82 40/43/93 41/51/92
s 1
f 41/44/99 38/53/98 46/35/77 49/34/76
s off
f 21/46/108 22/55/109 24/48/110 23/80/111
s 2
f 25/9/17 32/15/75 10/18/65
f 25/9/17 31/11/19 32/15/75
s 1
f 29/12/20 12/17/42 33/16/74
f 29/12/20 11/14/22 28/32/63 12/17/42
s 12
f 54/98/112 52/99/113 53/100/114 55/101/115
s 13
f 50/102/116 56/103/117 57/104/118 51/105/119
s 14
f 51/106/120 57/107/121 55/108/122 53/109/123
s 15
f 56/110/124 50/111/125 52/112/126 54/113/127
s 13
f 74/114/128 58/115/129 80/116/130
s 12
f 78/117/131 79/118/132 60/119/133
s 15
f 79/120/134 80/121/135 58/122/136 60/123/137
s 14
f 81/124/138 82/125/139 61/126/140 59/127/141
s off
f 60/123/142 58/122/143 62/128/144 64/129/145
f 59/127/146 61/126/147 65/130/148 63/131/149
s 13
f 62/132/150 58/115/129 66/133/151
s 12
f 65/134/152 61/135/153 69/136/154
s off
f 64/129/155 62/128/156 66/137/157 68/138/158
f 63/139/159 65/140/160 69/141/161 67/142/162
s 12
f 83/143/163 54/98/112 55/101/115 86/144/164
s 13
f 56/103/117 84/145/165 85/146/166 57/104/118
s 15
f 56/110/124 54/113/127 83/147/167 84/148/168
s 14
f 55/108/122 57/107/121 85/149/169 86/150/170
s 12
f 68/151/171 60/119/133 64/152/172
f 76/153/173 77/154/174 60/119/133 68/151/171
s 13
f 67/155/175 59/156/176 63/157/177
f 66/133/151 58/115/129 74/114/128 75/158/178
s 20
f 75/159/179 76/160/180 68/138/181 66/137/182
s 13
f 75/158/178 74/114/128 59/156/176 67/155/175
s 20
f 67/142/183 69/141/184 76/160/180 75/159/179
s 12
f 69/136/154 61/135/153 77/154/174 76/153/173
f 52/99/113 79/118/132 78/117/131 82/161/185 53/100/114
s 15
f 52/112/126 50/111/125 80/121/135 79/120/134
s 13
f 80/116/130 50/102/116 51/105/119 81/162/186
s 14
f 51/106/120 53/109/123 82/125/139 81/124/138
s 12
f 98/163/187 95/164/188 83/143/163 86/144/164
s 15
f 84/148/168 83/147/167 95/165/189 96/166/190
s 13
f 84/145/165 96/167/191 97/168/192 85/146/166
s 14
f 86/150/170 85/149/169 97/169/193 98/170/194
s 15
f 88/171/195 87/172/196 91/173/197 92/174/198
s 13
f 88/175/199 92/176/200 93/177/201 89/178/202
s 14
f 90/179/203 89/180/204 93/181/205 94/182/206
s 12
f 94/183/207 91/184/208 87/185/209 90/186/210
s 15
f 92/174/198 91/173/197 70/187/211 72/188/212
s 13
f 92/176/200 72/189/213 73/190/214 93/177/201
s 14
f 94/182/206 93/181/205 73/191/215 71/192/216
s 12
f 70/193/217 91/184/208 94/183/207 71/194/218
s 15
f 96/166/190 95/165/189 87/172/196 88/171/195
s 13
f 96/167/191 88/175/199 89/178/202 97/168/192
s 14
f 98/170/194 97/169/193 89/180/204 90/179/203
s 12
f 90/186/210 87/185/209 95/164/188 98/163/187
s off
f 70/187/219 71/192/220 73/191/221 72/188/222
s 13
f 74/114/128 81/162/186 59/156/176
f 74/114/128 80/116/130 81/162/186
s 12
f 78/117/131 61/135/153 82/161/185
f 78/117/131 60/119/133 77/154/174 61/135/153
